# xmcd
#
# Track frame offsets:
#	150
#	26950
#	46875
#	60275
#	76475
#	92850
#	109000
#	125600
#	152775
#	167275
#	185150
#	209250
#	229875
#	248400
#	264300
#
# Disc length: 3770
#
# Revision: 1
# Processed by: cddbd v1.5.1PL0 Copyright (c) Steve Scherf et al.
# Submitted via: Media_Universe 3.0
# Normalized: r0:TDELIM( - )
#
DISCID=c10eb80f
DTITLE=Various Artist - Superfunk Cdº1
DYEAR=1995
DGENRE=Disco
TTITLE0=James Brown - Sex Machine (live)
TTITLE1=Staple Singers - If You're Ready(Come Go With Me)
TTITLE2=Sly and The Family Stone - Dance To The Music
TTITLE3=Issac Hayes - Birth Of Shaft
TTITLE4=Funkadelic - One Nation Under A Groove
TTITLE5=Earth, Wind and Fire - Let's Groove
TTITLE6=Curtis Mayfield - Move On Up
TTITLE7=Defunkt - For The Love Of Money
TTITLE8=Wild Cherry - Play That Funky Music
TTITLE9=Labelle - Lady Marmalade
TTITLE10=F.F.F. - Positive
TTITLE11=Rufus - Tell Me Something Good
TTITLE12=Red Hot Chili Peppers - If You Want Me To Say
TTITLE13=George Clinton - Atomic Dog
TTITLE14=The Brass Construction - Movin'
EXTD=
EXTT0=
EXTT1=
EXTT2=
EXTT3=
EXTT4=
EXTT5=
EXTT6=
EXTT7=
EXTT8=
EXTT9=
EXTT10=
EXTT11=
EXTT12=
EXTT13=
EXTT14=
PLAYORDER=
